<svg xmlns="http://www.w3.org/2000/svg" viewBox="0 0 506 506"><title>logo-dark</title><path d="M524.82,148.74c-139.73,0-253,113.27-253,253s113.27,253,253,253,253-113.27,253-253S664.55,148.74,524.82,148.74Zm113.75,157a9.39,9.39,0,0,1-9.39,9.39H502.23a32.07,32.07,0,0,0-11.56,2.22,19.09,19.09,0,0,0-7.88,5,15.55,15.55,0,0,0-3.42,10.08v43a9.39,9.39,0,0,0,9.39,9.39H601.63a9.39,9.39,0,0,1,8.61,13.15l-14.66,33.61a9.39,9.39,0,0,1-8.61,5.64h-98.2a9.39,9.39,0,0,0-9.39,9.39v25.47a16.11,16.11,0,0,0,2.89,8.87q5.52,8.67,20,8.67H629.17a9.39,9.39,0,0,1,9.39,9.39v33.61a9.39,9.39,0,0,1-9.39,9.39H479.37a96,96,0,0,1-34.15-6.45q-34.15-13.1-34.15-45.95V315.18q0-13.1,8.41-26.2,17.07-26.2,59.89-26.2h149.8a9.39,9.39,0,0,1,9.39,9.39v33.61Z" transform="translate(-271.82 -148.74)" style="fill:#151515"/></svg>