<svg xmlns="http://www.w3.org/2000/svg" viewBox="0 0 503.86 920.06"><defs><style>.cls-1,.cls-2{fill:none;}.cls-1{stroke:#fff;stroke-miterlimit:10;stroke-width:20px;}</style></defs><title>nirmiti logo</title><g id="Layer_2" data-name="Layer 2"><g id="Layer_1-2" data-name="Layer 1"><path class="cls-1" d="M2.51,398.16V693.84c0,1.44,0,2.88,0,4.32s.47,2,2,2a92.28,92.28,0,0,0,18.1-1.8c25.05-5,45.88-17.3,62.18-37a104.23,104.23,0,0,0,23.81-57.59c.63-6.38.63-12.76.63-19.15q0-181.2,0-362.4c0-1.6,0-3.2,0-4.79a1.4,1.4,0,0,1,1.56-1.42l3.36,0q101.26-.07,202.55-.16,89.28,0,178.56,0c1.28,0,2.56,0,3.84,0,1.85-.05,2.07-.27,2.12-2.3a93.29,93.29,0,0,0-2.54-23.31c-12.35-53.35-62.37-87.8-114.84-82.16-3.33.35-6.66.94-10,1-7.67.2-15.35.2-23,.2q-71.76,0-143.52,0-46.8,0-93.59.15c-5.09,0-4.52.58-4.52-4.68q0-48.24,0-96.48c0-1.28,0-2.56,0-3.84-.05-1.55-.36-1.83-2.07-1.87A79.08,79.08,0,0,0,91.44,3.83C66.81,8.18,45.89,19.44,29.31,38.2,11.7,58.14,2.52,81.5,2.52,108.24Q2.48,253.2,2.51,398.16ZM501.33,573.28q0-169.42,0-338.84c0-6.18.91-5.36-5.25-5.36q-69.58,0-139.18.14-115.42,0-230.85,0h-4.32c-1.2,0-1.69.65-1.7,1.8-.07,6.24-.1,12.46,1.12,18.63,3.57,18.07,10.8,34.48,22.82,48.48,24.68,28.72,56,41.32,93.78,38,1.27-.11,2.55-.17,3.83-.18q27.35-.1,54.7-.17,46.32,0,92.63,0c1.28,0,2.56,0,3.84,0s1.82.44,1.82,1.66c0,1.6,0,3.2,0,4.8q0,234.21,0,468.42a104,104,0,0,0,2.09,21.44c5.35,25.53,18.17,46.59,38.67,62.75a103.16,103.16,0,0,0,63.37,22.69c2.6,0,2.61,0,2.65-2.55,0-1.28,0-2.56,0-3.84ZM252.78,347.15H123.31c-4.86,0-4.44-.46-4.43,4.29,0,14.4.13,28.79.15,43.19,0,18.07,0,36.15,0,54.22,0,5.58-.65,5,5.22,5q77.27-.08,154.52-.15,51.11,0,102.21,0c4.18,0,4.22.38,4.18-4.15-.08-8.79-.19-17.59-.2-26.38,0-23.52,0-47,0-70.55,0-1.72.76-3.84-.41-5.09-1.34-1.44-3.61-.63-5.45-.63C336.68,347,294.3,346.61,252.78,347.15Z"/><path class="cls-2" d="M2.51,398.16q0-145,0-289.92c0-26.74,9.18-50.1,26.79-70,16.58-18.76,37.5-30,62.13-34.37a79.08,79.08,0,0,1,15.75-1.31c1.71,0,2,.32,2.07,1.87,0,1.28,0,2.56,0,3.84q0,48.24,0,96.48c0,5.26-.57,4.69,4.52,4.68q46.8-.06,93.59-.15,71.76,0,143.52,0c7.68,0,15.36,0,23-.2,3.34-.08,6.67-.67,10-1,52.47-5.64,102.49,28.81,114.84,82.16a93.29,93.29,0,0,1,2.54,23.31c-.05,2-.27,2.25-2.12,2.3-1.28,0-2.56,0-3.84,0q-89.28,0-178.56,0-101.28,0-202.55.16l-3.36,0a1.4,1.4,0,0,0-1.56,1.42c-.06,1.59,0,3.19,0,4.79q0,181.2,0,362.4c0,6.39,0,12.77-.63,19.15a104.23,104.23,0,0,1-23.81,57.59c-16.3,19.7-37.13,32-62.18,37a92.28,92.28,0,0,1-18.1,1.8c-1.55,0-2-.44-2-2s0-2.88,0-4.32Z"/><path class="cls-2" d="M502.1,574.06V911.94c0,1.28,0,2.56,0,3.84,0,2.56-.05,2.59-2.65,2.54a103,103,0,0,1-63.37-22.69c-20.5-16.15-33.32-37.21-38.67-62.74a103.31,103.31,0,0,1-2.09-21.44q0-234.21,0-468.42c0-1.6,0-3.2,0-4.8,0-1.22-.67-1.68-1.81-1.67s-2.56,0-3.84,0q-46.32,0-92.63,0c-18.23,0-36.47.1-54.71.17-1.27,0-2.55.07-3.82.18-37.74,3.32-69.1-9.27-93.78-38-12-14-19.25-30.4-22.82-48.47-1.22-6.17-1.2-12.4-1.13-18.63,0-1.15.51-1.8,1.71-1.8h4.32q115.42,0,230.85,0,69.58,0,139.18-.14c6.15,0,5.25-.83,5.25,5.36Q502.12,404.65,502.1,574.06Z"/><path class="cls-2" d="M253.56,347.93c41.51-.54,83.9-.17,126.28-.25,1.85,0,4.12-.81,5.46.62,1.17,1.26.41,3.38.41,5.1,0,23.52,0,47,0,70.54,0,8.8.13,17.59.21,26.39,0,4.52,0,4.15-4.18,4.15q-51.11,0-102.22,0-77.25,0-154.51.15c-5.87,0-5.21.57-5.22-5,0-18.07,0-36.15,0-54.22,0-14.4-.11-28.79-.15-43.19,0-4.75-.44-4.29,4.42-4.29Z"/></g></g></svg>
