<svg id="Layer_1" data-name="Layer 1" xmlns="http://www.w3.org/2000/svg" viewBox="0 0 434.85 796.66"><defs><style>.cls-1{fill:#fff;}</style></defs><title>nw</title><path class="cls-1" d="M322.62,486.71q0-126.25,0-252.51a92.6,92.6,0,0,1,69.69-89.43c5.56-1.41,11.35-1.86,17-2.86,4.55-.8,6.37.27,6.31,5.57-.31,27.16,0,54.33-.28,81.49-.06,5.14,1.62,6,6.22,6q111.75-.28,223.49-.31c13.56,0,27.19-1.87,40.61,1,39.69,8.55,71,46.15,71.67,85.26.08,5-.94,6.44-6.23,6.44-109.47,0-218.95.28-328.43.26-5.91,0-7.39,1.34-7.38,7.34q.29,161.15.06,322.28c0,48.74-39.14,89.44-87.66,91.88-5.62.29-5.15-2.5-5.14-6.19Q322.65,614.82,322.62,486.71Z" transform="translate(-322.57 -141.67)"/><path class="cls-1" d="M757.25,638.85q0,146.29.17,292.6c0,6.47-2.1,7.23-7.62,6.77a93.08,93.08,0,0,1-85.23-93q0-203.4.17-406.8c0-5.58-1.43-6.66-6.73-6.62-46.29.33-92.62-.57-138.88.73-45.21,1.27-87.07-33.2-93.45-79-2-14.17-2.31-14.14,11.45-14.15q156.78-.13,313.58-.37c5.34,0,6.7,1.13,6.69,6.62Q757.1,492.24,757.25,638.85Z" transform="translate(-322.57 -141.67)"/><path class="cls-1" d="M539.91,534.6c-36.42,0-72.85-.1-109.27.11-4.93,0-6.62-.9-6.56-6.24.27-27,.19-53.92-.06-80.88,0-4.53,1-5.85,5.69-5.85q110.51.13,221-.19c4.19,0,5.53.86,5.5,5.31q-.33,41.06,0,82.11c0,4.81-1.41,5.64-5.84,5.62-36.84-.19-73.67-.11-110.51-.11Z" transform="translate(-322.57 -141.67)"/></svg>